<svg xmlns="http://www.w3.org/2000/svg" width="24" height="41" viewBox="0 0 24 41">
    <g>
        <g>
            <path fill="none" d="M0 0h24v24H0z" transform="translate(-1209 -249) translate(1209 249)"/>
            <path fill="#fff" d="M11.99 2A10 10 0 1 0 22 12 10 10 0 0 0 11.99 2zM12 20a8 8 0 1 1 8-8 8 8 0 0 1-8 8zm-.22-13h-.06a.717.717 0 0 0-.72.72v4.72a.99.99 0 0 0 .49.86l4.15 2.49a.715.715 0 1 0 .73-1.23l-3.87-2.3V7.72a.717.717 0 0 0-.72-.72z" transform="translate(-1209 -249) translate(1209 249)"/>
        </g>
        <text fill="#fff" font-family="Roboto-Regular, Roboto" font-size="14px" transform="translate(-1209 -249) translate(1213 286)">
            <tspan x="0" y="0">45</tspan>
        </text>
    </g>
</svg>
