<svg xmlns="http://www.w3.org/2000/svg" id="eco-24px" width="24" height="24" viewBox="0 0 24 24">
    <defs>
        <style>
            .cls-1{fill:none}
        </style>
    </defs>
    <g id="Group_5">
        <path id="Rectangle_9" d="M0 0H24V24H0z" class="cls-1"/>
        <path id="Rectangle_10" d="M0 0H24V24H0z" class="cls-1"/>
    </g>
    <g id="Group_7">
        <g id="Group_6">
            <path id="Path_5855" d="M6.05 8.05a7 7 0 0 0-.02 9.88A16.182 16.182 0 0 1 13.39 10 15.952 15.952 0 0 0 8 19.32a7 7 0 0 0 7.95-1.37c2.99-2.99 3.83-11.14 4.01-13.38a.489.489 0 0 0-.53-.53c-2.24.18-10.39 1.02-13.38 4.01z"/>
        </g>
    </g>
</svg>
