<svg xmlns="http://www.w3.org/2000/svg" id="menu_book-24px" width="24" height="24" viewBox="0 0 24 24">
    <defs>
        <style>
            .cls-1{fill:none}.cls-2{fill:#651fff}
        </style>
    </defs>
    <g id="Group_1">
        <path id="Rectangle_4" d="M0 0H24V24H0z" class="cls-1"/>
        <path id="Rectangle_5" d="M0 0H24V24H0z" class="cls-1"/>
    </g>
    <g id="Group_2">
        <path id="Path_5846" d="M17.5 4.5A9.3 9.3 0 0 0 12 6a9.3 9.3 0 0 0-5.5-1.5 10.819 10.819 0 0 0-4.28.79A2.037 2.037 0 0 0 1 7.14v11.28a2 2 0 0 0 2.48 1.94A12.35 12.35 0 0 1 6.5 20a10.574 10.574 0 0 1 4.56.92 2.055 2.055 0 0 0 1.87 0 10.43 10.43 0 0 1 4.56-.92 12.35 12.35 0 0 1 3.02.36 1.986 1.986 0 0 0 2.48-1.94V7.14a2.037 2.037 0 0 0-1.22-1.85 10.738 10.738 0 0 0-4.27-.79zM21 17.23a1.01 1.01 0 0 1-1.2.98 12.609 12.609 0 0 0-2.3-.2 12.045 12.045 0 0 0-5.5 1.5V8a12.045 12.045 0 0 1 5.5-1.5 12.687 12.687 0 0 1 2.7.28 1.014 1.014 0 0 1 .8.98z" class="cls-2"/>
        <path id="Path_5847" d="M13.98 11.01a.749.749 0 0 1-.23-1.46 13.3 13.3 0 0 1 5.36-.45.75.75 0 1 1-.17 1.49 11.82 11.82 0 0 0-4.73.39 2.079 2.079 0 0 1-.23.03z" class="cls-2"/>
        <path id="Path_5848" d="M13.98 13.67a.749.749 0 0 1-.23-1.46 13.287 13.287 0 0 1 5.36-.45.75.75 0 1 1-.17 1.49 11.82 11.82 0 0 0-4.73.39.969.969 0 0 1-.23.03z" class="cls-2"/>
        <path id="Path_5849" d="M13.98 16.33a.749.749 0 0 1-.23-1.46 13.287 13.287 0 0 1 5.36-.45.75.75 0 1 1-.17 1.49 11.82 11.82 0 0 0-4.73.39.969.969 0 0 1-.23.03z" class="cls-2"/>
    </g>
</svg>
