<svg xmlns="http://www.w3.org/2000/svg" width="24" height="24" viewBox="0 0 24 24">
    <defs>
        <style>
            .cls-2{fill:none}
        </style>
    </defs>
    <g id="star-24px" opacity="0.6">
        <g id="Group_3">
            <path id="Path_5852" d="M0 0h24v24H0z" class="cls-2"/>
            <path id="Path_5853" d="M0 0h24v24H0z" class="cls-2"/>
        </g>
        <g id="Group_4">
            <path id="Path_5854" d="M12 17.27l4.15 2.51a1 1 0 0 0 1.49-1.08l-1.1-4.72 3.67-3.18a1 1 0 0 0-.57-1.75l-4.83-.41-1.89-4.46a1 1 0 0 0-1.84 0L9.19 8.63l-4.83.41a1 1 0 0 0-.57 1.75l3.67 3.18-1.1 4.72a1 1 0 0 0 1.49 1.08z"/>
        </g>
    </g>
</svg>
